# xmcd CD database file
#
# Track frame offsets:
#	150
#	18448
#	35704
#	48807
#	61777
#	84006
#	103509
#	124008
#	146653
#	167885
#	186004
#
# Disc length: 2707 seconds
#
# Revision: 1
# Processed by: cddbd v1.5.2PL0 Copyright (c) Steve Scherf et al.
# Submitted via: CDex 1.70beta2
#
DISCID=860a910b
DTITLE=Dan Le Sac Vs. Scroobius Pip - The Logic Of Chance
DYEAR=2010
DGENRE=
TTITLE0=Sick Tonight
TTITLE1=Five Minutes
TTITLE2=Cauliflower
TTITLE3=Great Britain
TTITLE4=Get Better
TTITLE5=Inert Explosions
TTITLE6=Stake A Claim
TTITLE7=The Beat
TTITLE8=Last Train Home
TTITLE9=Snob
TTITLE10=Cowboi
EXTD=YEAR: 2010
EXTT0=
EXTT1=
EXTT2=
EXTT3=
EXTT4=
EXTT5=
EXTT6=
EXTT7=
EXTT8=
EXTT9=
EXTT10=
PLAYORDER=
